<svg width="997" height="2028" viewBox="0 0 997 2028" fill="none" xmlns="http://www.w3.org/2000/svg">
<path d="M0.0266113 -214C72.0103 -214 143.994 -214 215.978 -214C216.52 -144.997 244.155 -113.81 328.62 -74.94C423.637 -33.4578 546.546 -13.1234 674.972 31.4598C739.027 54.6934 809.621 83.8131 873.235 144.718C938.673 204.932 973.743 304.58 971.089 386C971.094 442.761 958.647 510.079 918.751 567.877C879.402 625.62 822.612 660.717 772.755 682.167C671.445 724.154 582.026 733.855 500.165 752.054C328.375 786.663 238.402 837.206 241.025 986C241.154 1061.87 258.176 1107.36 302.34 1135.47C348.948 1166.34 431.949 1179.93 518.9 1192.01C606.298 1206.16 706.24 1212.44 811.34 1276.4C923.155 1342.07 964.746 1485.29 960.595 1586C964.448 1680.93 922.688 1831.66 798.839 1884.67C686.403 1934.28 591.736 1924.04 505.934 1925.67C421.461 1924.94 338.035 1925.91 291.285 1948.7C249.014 1967.63 231.656 2009.92 230.617 2086C230.779 2165.31 250.44 2213.85 304.927 2245.08C361.114 2277.82 449.367 2290.28 539.611 2302.33C630.496 2315.98 731.034 2322.76 836.151 2380.33C948.652 2437.13 1001.42 2581.98 995.631 2686C998.101 2761.54 962.199 2857.89 893.089 2908.3C826.716 2959.19 756.809 2976.51 693.157 2990.17C565.484 3015.49 444.275 3018.33 340.611 3045.37C246.402 3071.29 202.691 3105 202.965 3185.71C151.99 3185.9 101.015 3186.1 50.0393 3186.29C48.1417 3121.17 71.0499 3039.52 126.125 2986.68C179.866 2933.7 243.274 2910.75 299.817 2894.72C541.235 2834.12 855.185 2856.01 832.374 2686C831.477 2605.74 809.804 2555.25 753.936 2524.54C696.526 2492.23 608.28 2480.86 517.893 2469.67C426.866 2456.88 326.334 2451.19 219.995 2394.05C106.112 2337.78 51.3358 2190.97 56.3874 2086C51.8464 1991.75 91.8555 1843.06 214.145 1789.63C325.312 1739.59 420.172 1748.77 505.934 1746.33C590.367 1746.26 673.986 1744.22 719.467 1721C760.177 1701.64 775.785 1661.39 776.136 1586C775.257 1509.32 756.542 1462.07 710.948 1434.29C663.073 1403.75 580.061 1391.24 492.968 1379.99C405.427 1366.67 305.475 1361.46 199.108 1297.83C85.8632 1232.5 42.5782 1087.52 45.9791 986C43.2828 884.268 78.8209 753.587 175.097 675.904C268.134 599.325 369.708 577.011 457.723 556.357C546.008 536.811 631.265 523.062 691.427 496.337C752.363 466.299 763.203 449.067 765.642 386C787.684 233.199 497.079 216.993 244.481 120.519C187.915 96.1621 125.321 62.3096 74.5161 1.50407C22.8212 -58.8147 -0.907959 -143.698 0.0266113 -214Z" fill="black"/>
</svg>
